<?xml version="1.0" standalone="no"?>
<!DOCTYPE svg PUBLIC "-//W3C//DTD SVG 20010904//EN"
 "http://www.w3.org/TR/2001/REC-SVG-20010904/DTD/svg10.dtd">
<svg version="1.0" xmlns="http://www.w3.org/2000/svg"
 width="50.000000pt" height="50.000000pt" viewBox="0 0 50.000000 50.000000"
 preserveAspectRatio="xMidYMid meet">

<g transform="translate(0.000000,50.000000) scale(0.100000,-0.100000)"
fill="#FF934F" stroke="none">
<path d="M145 442 l-79 -47 -28 -90 c-15 -50 -28 -94 -28 -98 0 -4 21 9 46 30
39 33 182 238 172 248 -2 2 -39 -18 -83 -43z"/>
<path d="M270 486 c0 -3 30 -52 66 -110 42 -68 81 -117 107 -136 22 -16 42
-29 43 -27 2 1 -8 41 -21 87 -17 58 -32 91 -48 103 -28 22 -147 89 -147 83z"/>
<path d="M191 374 c-29 -47 -54 -91 -55 -98 -1 -13 99 -106 115 -106 12 0 119
91 119 102 0 10 -113 188 -119 188 -3 0 -30 -39 -60 -86z m39 -84 c0 -27 -4
-50 -10 -50 -5 0 -10 15 -10 34 0 19 -6 37 -12 39 -10 4 -9 8 2 16 26 18 30
13 30 -39z m75 0 c0 -39 -3 -45 -22 -48 -30 -4 -47 36 -33 74 7 19 16 25 33
22 19 -3 22 -9 22 -48z"/>
<path d="M265 309 c-4 -5 -4 -22 0 -36 6 -24 8 -25 22 -11 9 10 13 24 8 37 -7
23 -20 27 -30 10z"/>
<path d="M61 212 l-44 -38 106 -82 c58 -45 109 -82 112 -82 3 0 5 30 4 68 l0
67 -60 50 c-32 28 -62 51 -67 52 -4 2 -27 -14 -51 -35z"/>
<path d="M323 194 l-63 -56 0 -65 c0 -35 4 -63 9 -61 5 1 56 39 112 82 l103
79 -45 39 c-24 21 -46 38 -49 38 -3 0 -33 -25 -67 -56z"/>
</g>
</svg>
