<?xml version="1.0" standalone="no"?>
<!DOCTYPE svg PUBLIC "-//W3C//DTD SVG 20010904//EN"
 "http://www.w3.org/TR/2001/REC-SVG-20010904/DTD/svg10.dtd">
<svg version="1.0" xmlns="http://www.w3.org/2000/svg"
 width="50.000000pt" height="50.000000pt" viewBox="0 0 50.000000 50.000000"
 preserveAspectRatio="xMidYMid meet">

<g transform="translate(0.000000,50.000000) scale(0.100000,-0.100000)"
fill="#C3D350" stroke="none">
<path d="M183 473 c-35 -15 -63 -31 -63 -36 0 -6 11 -30 25 -54 l26 -43 79 0
79 0 26 43 c14 24 25 48 25 54 0 7 -122 65 -133 62 -1 0 -30 -12 -64 -26z"/>
<path d="M52 371 l-42 -59 6 -71 c7 -76 14 -82 66 -62 18 7 29 26 46 79 l23
71 -26 51 c-14 27 -26 50 -28 50 -1 0 -21 -27 -45 -59z"/>
<path d="M375 380 l-26 -51 23 -71 c17 -53 28 -72 46 -79 52 -20 59 -14 66 62
l6 71 -44 60 -45 60 -26 -52z"/>
<path d="M147 246 l-25 -74 59 -41 c32 -22 63 -41 69 -41 7 0 38 18 70 41 l58
41 -25 74 -25 74 -78 0 -78 0 -25 -74z m73 -31 c0 -30 -4 -55 -10 -55 -5 0
-10 18 -10 40 0 31 -4 40 -17 40 -16 1 -16 2 1 15 31 24 36 18 36 -40z m98 29
c2 -14 -7 -29 -24 -43 l-27 -21 27 0 c14 0 26 -4 26 -10 0 -5 -16 -10 -35 -10
-42 0 -47 22 -10 46 25 16 35 54 14 54 -7 0 -18 -8 -25 -17 -12 -16 -13 -16
-14 -2 0 23 11 30 40 27 17 -2 26 -10 28 -24z"/>
<path d="M53 153 c-21 -4 -20 -7 20 -62 39 -55 45 -59 104 -73 l63 -15 0 32
c0 28 -8 37 -68 78 -66 46 -74 49 -119 40z"/>
<path d="M328 113 c-60 -41 -68 -51 -68 -78 l0 -32 63 15 c59 14 65 18 104 72
l41 58 -30 6 c-17 3 -33 6 -37 6 -3 0 -36 -21 -73 -47z"/>
</g>
</svg>
