<?xml version="1.0" standalone="no"?>
<!DOCTYPE svg PUBLIC "-//W3C//DTD SVG 20010904//EN"
 "http://www.w3.org/TR/2001/REC-SVG-20010904/DTD/svg10.dtd">
<svg version="1.0" xmlns="http://www.w3.org/2000/svg"
 width="50.000000pt" height="50.000000pt" viewBox="0 0 50.000000 50.000000"
 preserveAspectRatio="xMidYMid meet">

<g transform="translate(0.000000,50.000000) scale(0.100000,-0.100000)"
fill="#3DA5D9" stroke="none">
<path d="M186 449 c-27 -22 -61 -48 -75 -59 -23 -17 -16 -16 52 6 76 25 77 26
77 60 0 19 -1 34 -2 34 -2 -1 -25 -19 -52 -41z"/>
<path d="M260 457 c0 -35 1 -35 77 -61 42 -14 73 -22 67 -18 -5 5 -39 32 -76
61 l-68 53 0 -35z"/>
<path d="M145 361 c-48 -17 -50 -20 -53 -57 -2 -22 1 -50 6 -63 8 -21 10 -20
43 31 83 125 83 117 4 89z"/>
<path d="M185 288 c-33 -50 -61 -95 -63 -99 -2 -5 56 -9 128 -9 72 0 130 4
128 9 -6 17 -123 191 -128 191 -3 0 -32 -41 -65 -92z m128 -20 c15 -55 -42
-95 -60 -42 -8 23 -10 25 -22 10 -11 -14 -11 -16 3 -16 9 0 16 -4 16 -10 0 -5
-16 -10 -35 -10 -41 0 -44 8 -10 40 13 12 22 27 18 33 -3 5 -10 2 -15 -7 -11
-20 -29 -11 -21 10 4 12 15 15 38 11 17 -3 38 -2 45 3 19 11 37 2 43 -22z"/>
<path d="M277 274 c-11 -11 -8 -54 3 -54 6 0 13 6 16 14 7 17 -9 50 -19 40z"/>
<path d="M305 354 c90 -139 88 -137 97 -113 5 13 8 41 6 63 -3 41 -3 41 -98
71 l-24 8 19 -29z"/>
<path d="M33 240 c-12 -46 -21 -86 -19 -87 2 -2 15 2 30 8 23 11 26 18 25 58
-1 25 -4 59 -8 75 -5 26 -9 18 -28 -54z"/>
<path d="M437 285 c-14 -82 -9 -111 19 -124 15 -6 28 -10 30 -8 2 2 -7 41 -19
88 l-23 84 -7 -40z"/>
<path d="M183 93 l67 -68 67 68 68 67 -135 0 -135 0 68 -67z"/>
<path d="M53 138 c-13 -6 -23 -14 -23 -17 0 -4 44 -28 98 -55 l97 -48 -65 66
c-68 69 -71 71 -107 54z"/>
<path d="M340 84 l-65 -66 98 48 c53 27 97 51 97 55 0 6 -46 29 -58 29 -4 0
-37 -30 -72 -66z"/>
</g>
</svg>
