<?xml version="1.0" standalone="no"?>
<!DOCTYPE svg PUBLIC "-//W3C//DTD SVG 20010904//EN"
 "http://www.w3.org/TR/2001/REC-SVG-20010904/DTD/svg10.dtd">
<svg version="1.0" xmlns="http://www.w3.org/2000/svg"
 width="50.000000pt" height="50.000000pt" viewBox="0 0 50.000000 50.000000"
 preserveAspectRatio="xMidYMid meet">

<g transform="translate(0.000000,50.000000) scale(0.100000,-0.100000)"
fill="#073B3A" stroke="none">
<path d="M96 461 c-17 -19 -15 -20 154 -19 168 0 171 0 154 19 -15 17 -32 19
-154 19 -122 0 -139 -2 -154 -19z"/>
<path d="M62 397 c-21 -22 -22 -33 -22 -178 0 -209 -11 -199 211 -199 220 0
209 -10 209 201 0 209 11 199 -211 199 -160 0 -166 -1 -187 -23z m303 -87 c0
-18 -6 -26 -23 -28 -13 -2 -25 3 -28 12 -10 26 4 48 28 44 17 -2 23 -10 23
-28z m-90 -90 c0 -18 -6 -26 -23 -28 -13 -2 -25 3 -28 12 -10 26 4 48 28 44
17 -2 23 -10 23 -28z m-90 -90 c0 -18 -6 -26 -23 -28 -13 -2 -25 3 -28 12 -10
26 4 48 28 44 17 -2 23 -10 23 -28z"/>
</g>
</svg>
