<?xml version="1.0" standalone="no"?>
<!DOCTYPE svg PUBLIC "-//W3C//DTD SVG 20010904//EN"
 "http://www.w3.org/TR/2001/REC-SVG-20010904/DTD/svg10.dtd">
<svg version="1.0" xmlns="http://www.w3.org/2000/svg"
 width="50.000000pt" height="50.000000pt" viewBox="0 0 50.000000 50.000000"
 preserveAspectRatio="xMidYMid meet">

<g transform="translate(0.000000,50.000000) scale(0.100000,-0.100000)"
fill="#C490D1" stroke="none">
<path d="M126 371 l-108 -109 136 -45 c75 -25 136 -42 136 -38 0 12 -51 295
-53 298 -2 1 -52 -46 -111 -106z m99 -4 c14 -11 16 -20 10 -43 -5 -16 -7 -35
-6 -41 7 -45 -51 -70 -82 -35 -16 18 -13 62 4 62 5 0 9 11 9 25 0 13 8 29 18
34 22 14 25 13 47 -2z"/>
<path d="M190 335 c0 -8 5 -15 10 -15 6 0 10 7 10 15 0 8 -4 15 -10 15 -5 0
-10 -7 -10 -15z"/>
<path d="M167 294 c-14 -14 -7 -35 11 -32 9 2 17 10 17 17 0 16 -18 25 -28 15z"/>
<path d="M270 464 c0 -5 11 -73 25 -150 14 -76 25 -140 25 -141 0 -5 135 70
147 81 10 9 -11 35 -92 116 -58 58 -105 100 -105 94z"/>
<path d="M130 125 c57 -57 106 -102 109 -99 13 13 49 110 43 115 -4 4 -63 25
-132 48 l-125 41 105 -105z"/>
<path d="M383 174 c-52 -29 -66 -43 -83 -81 -11 -25 -19 -48 -17 -49 2 -2 41
35 87 81 47 47 82 85 80 85 -3 0 -33 -16 -67 -36z"/>
</g>
</svg>
